<svg xmlns="http://www.w3.org/2000/svg" viewBox="0 0 1985.56 1632"><g id="Layer_2" data-name="Layer 2"><g id="Layer_3" data-name="Layer 3"><path d="M0,653.42c2.88-1.75,4.88-3,7-4.22q572.52-323.3,1145-646.72c6.16-3.48,10.55-3.22,16.47.3,87.08,51.77,174.53,102.93,261.35,155.12,27.28,16.39,53.25,35,79.33,53.31,24.6,17.26,48.48,35.52,68.13,58.59,25.43,29.85,42.84,63,39.66,103.63-2.52,32.19-17.27,58.93-39.21,81.87-20.55,21.47-45.24,37.19-71.72,50.42-46.43,23.22-95.79,35.51-147.18,40.93-36.77,3.87-73.41,4-110-1.53-1.66-.25-3.35-.23-6.17-.41,8.64,9.8,16.94,18.59,24.54,27.94,32,39.39,56.1,82.76,65.09,133.35,10.11,56.89-1.61,109.77-30.12,159.43-17.27,30.08-39.61,55.81-65.26,79.12-29.76,27-62.91,49.27-97.78,68.56-76,42.07-157.65,67.87-243.86,79.46a713.5,713.5,0,0,1-145.81,5.06c-89.73-6.35-176.28-26.55-258.07-64.63-30-14-59.65-28.8-88.2-45.41C379.72,974,357.88,957.65,336,941.68c-72.83-53-138.51-114.65-206.24-173.79C88.39,731.8,47.36,695.36,6.2,659.08,4.38,657.48,2.61,655.81,0,653.42Z"/><path d="M101.79,1046.87c3.2-2,5.19-3.34,7.24-4.57,41.39-24.81,82.84-49.53,124.13-74.51,4.7-2.84,7.66-2.73,12.14.72,21.53,16.58,42.94,33.4,65.3,48.81,78,53.75,163,92.67,254.24,117.89a871.64,871.64,0,0,0,171.88,29,824.45,824.45,0,0,0,123.45-.62c66.12-5.28,131.11-17.18,194-38.5,28.77-9.75,57.49-20.1,85.16-32.58,40.79-18.39,80.1-39.88,116.1-66.78,18.07-13.49,36.62-26.57,53.3-41.65,52.3-47.29,91.68-103.22,108.69-172.71,15.14-61.92,7.66-121.81-19-179.44-4.79-10.34-10.2-20.39-15.59-31.09,14.69-2.54,29-4.72,43.22-7.53a558.07,558.07,0,0,0,112.43-34.56,391.86,391.86,0,0,0,74.16-41.89c34.1-24.49,62.63-54.28,78.21-94.44a14.31,14.31,0,0,1,1.88-2.46c11.92,7.27,23.94,14.47,35.83,21.86,57.21,35.53,113.09,73,164.75,116.35,28.23,23.71,52.46,50.83,70.45,83.25,36.57,65.88,26.64,139.2-26.29,193-35.83,36.46-79.43,60.29-127.3,76.53-81.15,27.51-164.13,34.69-248.79,20.52a19,19,0,0,0-2.91-.28,7.39,7.39,0,0,0-1.83.67c9,10.09,18.1,19.8,26.64,30,42.66,50.91,75.7,107,91.1,172.28,20.84,88.29,3.32,169.82-45.22,245.32-31.75,49.39-75,87.23-122.47,121-98.38,69.94-208.3,109.25-327.22,124.72-143.92,18.72-282.79-2.23-417.37-55a931.21,931.21,0,0,1-192.65-103.51c-34.14-23.78-66.51-50.26-98.46-77-92.5-77.35-177.07-163.34-265.27-245.38-32.85-30.57-65.25-61.62-97.87-92.43C106.12,1050.3,104.19,1048.86,101.79,1046.87Z"/></g></g></svg>